<svg width="23" height="20" viewBox="0 0 23 20" fill="none" xmlns="http://www.w3.org/2000/svg">
<path d="M21.1834 13.9503H7.22637L7.92715 12.5229L19.5709 12.5019C19.9646 12.5019 20.3021 12.2206 20.3725 11.8315L21.985 2.80576C22.0271 2.56904 21.9639 2.32529 21.8092 2.14014C21.7327 2.04901 21.6374 1.97561 21.5297 1.92502C21.4221 1.87443 21.3047 1.84787 21.1857 1.84717L6.37324 1.79795L6.24668 1.20264C6.16699 0.822949 5.82481 0.546387 5.43574 0.546387H1.81465C1.59522 0.546387 1.38479 0.633553 1.22963 0.78871C1.07447 0.943867 0.987305 1.15431 0.987305 1.37373C0.987305 1.59316 1.07447 1.80359 1.22963 1.95875C1.38479 2.11391 1.59522 2.20107 1.81465 2.20107H4.76543L5.31855 4.83076L6.68027 11.4237L4.92715 14.2854C4.83611 14.4083 4.78127 14.5542 4.76884 14.7067C4.75642 14.8591 4.7869 15.0119 4.85684 15.1479C4.99746 15.4269 5.28105 15.6026 5.59512 15.6026H7.06699C6.75321 16.0194 6.58372 16.527 6.58418 17.0487C6.58418 18.3753 7.6623 19.4534 8.98887 19.4534C10.3154 19.4534 11.3936 18.3753 11.3936 17.0487C11.3936 16.5261 11.2201 16.0175 10.9107 15.6026H14.6865C14.3727 16.0194 14.2033 16.527 14.2037 17.0487C14.2037 18.3753 15.2818 19.4534 16.6084 19.4534C17.935 19.4534 19.0131 18.3753 19.0131 17.0487C19.0131 16.5261 18.8396 16.0175 18.5303 15.6026H21.1857C21.6404 15.6026 22.0131 15.2323 22.0131 14.7753C22.0117 14.5561 21.9237 14.3463 21.7683 14.1918C21.6129 14.0372 21.4026 13.9504 21.1834 13.9503ZM6.71777 3.4292L20.2131 3.47373L18.8912 10.8753L8.29043 10.894L6.71777 3.4292ZM8.98887 17.7894C8.58106 17.7894 8.24824 17.4565 8.24824 17.0487C8.24824 16.6409 8.58106 16.3081 8.98887 16.3081C9.39668 16.3081 9.72949 16.6409 9.72949 17.0487C9.72949 17.2452 9.65146 17.4335 9.51257 17.5724C9.37367 17.7113 9.18529 17.7894 8.98887 17.7894ZM16.6084 17.7894C16.2006 17.7894 15.8678 17.4565 15.8678 17.0487C15.8678 16.6409 16.2006 16.3081 16.6084 16.3081C17.0162 16.3081 17.349 16.6409 17.349 17.0487C17.349 17.2452 17.271 17.4335 17.1321 17.5724C16.9932 17.7113 16.8048 17.7894 16.6084 17.7894Z" fill="#0038FF"/>
</svg>
