<svg width="7" height="12" viewBox="0 0 7 12" fill="none" xmlns="http://www.w3.org/2000/svg">
<path d="M3.86671 5.26667C2.35338 4.87333 1.86671 4.46667 1.86671 3.83333C1.86671 3.10667 2.54005 2.6 3.66671 2.6C4.85338 2.6 5.29338 3.16667 5.33338 4H6.80671C6.76005 2.85333 6.06005 1.8 4.66671 1.46V0H2.66671V1.44C1.37338 1.72 0.333379 2.56 0.333379 3.84667C0.333379 5.38667 1.60671 6.15333 3.46671 6.6C5.13338 7 5.46671 7.58667 5.46671 8.20667C5.46671 8.66667 5.14005 9.4 3.66671 9.4C2.29338 9.4 1.75338 8.78667 1.68005 8H0.213379C0.293379 9.46 1.38671 10.28 2.66671 10.5533V12H4.66671V10.5667C5.96671 10.32 7.00005 9.56667 7.00005 8.2C7.00005 6.30667 5.38005 5.66 3.86671 5.26667Z" fill="currentColor"/>
</svg>
