<svg width="14" height="14" viewBox="0 0 14 14" fill="currentColor" xmlns="http://www.w3.org/2000/svg">
<path d="M13.7658 5.4375H9.76582C9.69707 5.4375 9.64082 5.49375 9.64082 5.5625V6.3125C9.64082 6.38125 9.69707 6.4375 9.76582 6.4375H13.7658C13.8346 6.4375 13.8908 6.38125 13.8908 6.3125V5.5625C13.8908 5.49375 13.8346 5.4375 13.7658 5.4375ZM11.6721 7.5625H9.76582C9.69707 7.5625 9.64082 7.61875 9.64082 7.6875V8.4375C9.64082 8.50625 9.69707 8.5625 9.76582 8.5625H11.6721C11.7408 8.5625 11.7971 8.50625 11.7971 8.4375V7.6875C11.7971 7.61875 11.7408 7.5625 11.6721 7.5625ZM6.45801 4.03906H5.78145C5.68457 4.03906 5.60645 4.11719 5.60645 4.21406V8.08906C5.60645 8.14531 5.63301 8.19688 5.67832 8.22969L8.00488 9.92656C8.08301 9.98281 8.19238 9.96719 8.24863 9.88906L8.6502 9.34062V9.33906C8.70645 9.26094 8.68926 9.15156 8.61113 9.09531L6.63145 7.66406V4.21406C6.63301 4.11719 6.55332 4.03906 6.45801 4.03906Z" fill="currentColor"/>
<path d="M11.575 9.52957H10.6719C10.5844 9.52957 10.5016 9.57489 10.4547 9.64989C10.2563 9.96395 10.025 10.2546 9.75938 10.5202C9.30157 10.978 8.76876 11.3374 8.17657 11.5874C7.56251 11.8468 6.91095 11.978 6.23907 11.978C5.56563 11.978 4.91407 11.8468 4.30157 11.5874C3.70938 11.3374 3.17657 10.978 2.71876 10.5202C2.26095 10.0624 1.90157 9.52957 1.65157 8.93739C1.3922 8.32489 1.26095 7.67333 1.26095 6.99989C1.26095 6.32645 1.3922 5.67645 1.65157 5.06239C1.90157 4.4702 2.26095 3.93739 2.71876 3.47958C3.17657 3.02176 3.70938 2.66239 4.30157 2.41239C4.91407 2.15302 5.5672 2.02176 6.23907 2.02176C6.91251 2.02176 7.56407 2.15302 8.17657 2.41239C8.76876 2.66239 9.30157 3.02176 9.75938 3.47958C10.025 3.7452 10.2563 4.03583 10.4547 4.34989C10.5016 4.42489 10.5844 4.4702 10.6719 4.4702H11.575C11.6828 4.4702 11.7516 4.3577 11.7031 4.26239C10.6844 2.23583 8.61876 0.918641 6.31251 0.892078C2.93595 0.849891 0.131261 3.61395 0.125011 6.98739C0.118761 10.3671 2.85782 13.1093 6.23751 13.1093C8.57345 13.1093 10.6734 11.7874 11.7031 9.73739C11.7516 9.64207 11.6813 9.52957 11.575 9.52957Z" fill="currentColor"/>
</svg>
